<?xml version="1.0" encoding="UTF-8"?>
<!DOCTYPE svg PUBLIC "-//W3C//DTD SVG 1.1//EN" "http://www.w3.org/Graphics/SVG/1.1/DTD/svg11.dtd">
<svg version="1.1" xmlns="http://www.w3.org/2000/svg" xmlns:xlink="http://www.w3.org/1999/xlink" x="0" y="0" width="100" height="100" viewBox="0, 0, 100, 100">
  <defs>
    <linearGradient id="Gradient_1" gradientUnits="userSpaceOnUse" x1="29.052" y1="58.418" x2="41.078" y2="85.856">
      <stop offset="0" stop-color="@@PRIMARY_500@@"/>
      <stop offset="1" stop-color="@@PRIMARY_900@@"/>
    </linearGradient>
  </defs>
  <g id="Layer_1">
    <path d="M49.701,0 C21.922,0 0.002,29.834 0.002,69.343 L22.4,73.161 C16.489,68.01 20.114,28.083 49.701,28.083 C79.287,28.083 83.89,68.001 77.883,73.161 L99.998,69.343 C99.998,29.834 77.479,0 49.701,0 z" fill="@@PRIMARY_500@@"/>
    <path d="M100,69.132 C100,82.585 84.196,81.557 73.665,85.433 C63.135,89.309 53.205,100 50,100 C46.548,100 31.563,86.792 26.563,85.433 C17.327,82.157 -0,82.585 -0,69.132 C-0,41.574 22.386,80.355 50,80.355 C77.614,80.355 100,41.574 100,69.132 z" fill="@@PRIMARY_500@@"/>
    <path d="M11.364,81.676 C19.432,83.767 25.313,84.752 27.501,85.859 C43.188,92.395 46.647,99.784 49.783,99.784 C53.786,99.784 56.56,82.347 56.56,82.347 C45.417,78.479 37.508,65.508 19.019,60.095 C19.019,60.095 5.498,55.397 2.615,58.423 C-0.584,65.988 -3.457,77.6 11.364,81.676 z" fill="url(#Gradient_1)"/>
    <path d="M71.59,86.081 C55.982,94.076 54.743,99.161 49.543,99.899 C49.543,99.899 47.742,99.689 39.308,92.928 C35.433,89.821 28.41,86.25 28.41,86.25 C48.549,89.324 57.055,66.354 80.551,60.098 C80.551,60.098 87.199,78.086 71.59,86.081 z" fill="@@PRIMARY_500@@"/>
  </g>
</svg>
