<?xml version="1.0" encoding="UTF-8"?>
<!DOCTYPE svg PUBLIC "-//W3C//DTD SVG 1.1//EN" "http://www.w3.org/Graphics/SVG/1.1/DTD/svg11.dtd">
<svg version="1.1" xmlns="http://www.w3.org/2000/svg" xmlns:xlink="http://www.w3.org/1999/xlink" x="0" y="0" width="100" height="100" viewBox="0, 0, 100, 100">
  <defs>
    <linearGradient id="Gradient_1" gradientUnits="userSpaceOnUse" x1="5.756" y1="1.539" x2="91.292" y2="95.787">
      <stop offset="0" stop-color="@@PRIMARY_400@@"/>
      <stop offset="1" stop-color="@@PRIMARY_900@@"/>
    </linearGradient>
    <linearGradient id="Gradient_2" gradientUnits="userSpaceOnUse" x1="92.533" y1="12.265" x2="31.654" y2="49.883">
      <stop offset="0" stop-color="@@PRIMARY_700@@"/>
      <stop offset="1" stop-color="@@PRIMARY_900@@"/>
    </linearGradient>
  </defs>
  <g id="Layer_1">
    <path d="M46.106,1.539 C37.496,7.7 31.655,19.682 31.655,33.453 C31.655,45.144 35.864,55.545 42.404,62.19 C46.317,66.919 52.454,69.964 59.353,69.964 C65.589,69.964 71.201,67.475 75.114,63.505 L94.24,87.958 C84.865,95.465 72.675,100 59.353,100 C29.752,100 5.756,77.614 5.756,50 C5.756,26.651 22.912,7.04 46.106,1.539 z" fill="url(#Gradient_1)"/>
    <path d="M75.113,63.505 L94.239,87.958 L75.113,63.505 z M94.24,12 L94.244,12.072 L75.113,36.495 C71.202,32.525 65.589,30.036 59.352,30.036 C47.533,30.036 37.951,38.974 37.951,50 C37.951,54.59 39.612,58.818 42.403,62.19 C35.863,55.545 31.654,45.144 31.654,33.453 C31.654,19.682 37.495,7.7 46.105,1.539 C50.342,0.534 54.78,0 59.352,0 C73.6,0 94.24,12 94.24,12 z" fill="url(#Gradient_2)"/>
  </g>
</svg>
