<?xml version="1.0" encoding="UTF-8"?>
<!DOCTYPE svg PUBLIC "-//W3C//DTD SVG 1.1//EN" "http://www.w3.org/Graphics/SVG/1.1/DTD/svg11.dtd">
<svg version="1.1" xmlns="http://www.w3.org/2000/svg" xmlns:xlink="http://www.w3.org/1999/xlink" x="0" y="0" width="100" height="100" viewBox="0, 0, 100, 100">
  <defs>
    <linearGradient id="Gradient_1" gradientUnits="userSpaceOnUse" x1="202.342" y1="216.304" x2="273.332" y2="284.799" gradientTransform="matrix(1.28, 0, 0, 1.28, -255.999, -272.645)">
      <stop offset="0" stop-color="@@PRIMARY_400@@"/>
      <stop offset="1" stop-color="@@PRIMARY_900@@"/>
    </linearGradient>
  </defs>
  <g id="Layer_1">
    <g id="path9">
      <path d="M48.399,6.092 C45.774,7.777 45.016,11.266 46.709,13.883 C56.009,28.286 58.204,39.149 57.252,48.668 C53.402,66.899 45.034,70.598 37.723,70.598 C30.583,70.598 32.495,58.848 37.862,55.41 C41.065,53.41 45.168,52.109 48.318,52.109 C51.438,52.109 53.968,49.588 53.968,46.476 C53.968,43.364 51.438,40.843 48.318,40.843 C44.639,40.843 41.031,41.615 37.663,42.931 C38.351,39.685 38.605,36.175 37.716,32.445 C36.365,26.781 32.476,21.372 25.726,16.128 C24.544,15.208 23.044,14.795 21.556,14.979 C20.069,15.163 18.715,15.929 17.794,17.108 C15.88,19.564 16.322,23.105 18.787,25.015 C24.286,29.287 26.102,32.449 26.723,35.052 C27.344,37.655 26.845,40.447 25.597,44.283 C24.003,49.454 22.152,54.069 21.34,58.495 C20.941,60.674 20.907,63.044 20.804,64.938 C16.843,61.079 15.293,55.982 15.293,48.535 C15.292,45.423 12.762,42.9 9.642,42.901 C6.524,42.904 3.998,45.425 3.998,48.535 C3.998,58.705 6.972,68.384 14.943,74.841 C22.16,81.716 40.511,79.175 40.511,90.212 C40.511,93.327 45.071,94.843 48.19,94.843 C51.39,94.843 55.417,92.704 55.417,90.212 C55.417,77.69 68.614,70.078 90.34,70.111 C93.461,70.116 95.993,67.596 95.998,64.484 C96.002,61.372 93.478,58.845 90.358,58.839 C88.872,58.838 87.423,58.888 85.996,58.972 C88.425,53.26 89.503,46.971 89.279,40.178 C89.176,37.067 86.565,34.629 83.448,34.73 C80.326,34.832 77.881,37.439 77.983,40.55 C78.277,49.446 77.944,57.388 71.318,61.575 C69.433,62.764 67.243,63.797 65.165,63.797 C66.779,59.409 67.996,54.779 68.494,49.788 C68.813,46.603 68.847,42.819 68.484,39.88 C67.919,35.326 67.239,30.161 68.968,26.271 C70.521,22.92 74.001,21.517 79.109,21.517 C82.227,21.514 84.753,18.993 84.754,15.884 C84.755,12.771 82.229,10.247 79.109,10.245 C71.517,10.245 65.762,14.24 62.501,19.067 C60.794,15.424 58.717,11.669 56.208,7.784 C55.397,6.528 54.119,5.645 52.657,5.327 C51.931,5.171 51.182,5.157 50.452,5.287 C49.722,5.419 49.024,5.692 48.399,6.092 z" fill="url(#Gradient_1)" style="stroke-linejoin:round;stroke-opacity:1;paint-order:markers stroke fill;stroke:@@PRIMARY_950@@;stroke-width:8;stroke-miterlimit:4;stroke-dasharray:none" />
    </g>
  </g>
</svg>
